<svg width="466" height="515" viewBox="0 0 466 515" fill="none" xmlns="http://www.w3.org/2000/svg">
<path d="M445.664 115.531H305.12M445.664 203.371H305.12M445.664 291.211H305.12M-144.352 495H157.292C173.205 495 188.466 488.679 199.718 477.426L269.979 407.166C281.231 395.913 296.492 389.592 312.405 389.592H385.664C418.801 389.592 445.664 362.729 445.664 329.592V80.6641C445.664 47.527 418.801 20.6641 385.664 20.6641H-144.352C-177.489 20.6641 -204.352 47.527 -204.352 80.6641V435C-204.352 468.137 -177.489 495 -144.352 495Z" stroke="#F8F8F8" stroke-width="40" stroke-linecap="round"/>
<path d="M-44.0317 114V182.269C-44.0317 183.301 -43.1907 184.139 -42.1534 184.139H86.5132M-113.061 246.796H-44.0317M-44.0317 246.796V315.532M-44.0317 246.796H18.8928M18.8928 246.796H86.5132M18.8928 246.796V315.532M-90 316H63C76.2548 316 87 305.255 87 292V138C87 124.745 76.2548 114 63 114H-90C-103.255 114 -114 124.745 -114 138V292C-114 305.255 -103.255 316 -90 316Z" stroke="#F8F8F8" stroke-width="24"/>
</svg>
