<svg width="429" height="541" viewBox="0 0 429 541" fill="none" xmlns="http://www.w3.org/2000/svg">
<path d="M-62.4286 306.198L-148.143 34.7695M280.429 306.198L366.143 34.7695M-131 520.484H349C382.137 520.484 409 493.621 409 460.484V380.484C409 347.347 382.137 320.484 349 320.484H-131C-164.137 320.484 -191 347.347 -191 380.484V460.484C-191 493.621 -164.137 520.484 -131 520.484Z" stroke="#F8F8F8" stroke-width="40" stroke-linecap="round"/>
<path d="M-48.1562 91.4286C-48.1562 91.4286 8.98661 20 108.987 20C208.987 20 266.129 91.4286 266.129 91.4286" stroke="#F8F8F8" stroke-width="40" stroke-linecap="round"/>
<path d="M-5.33594 153.334C-5.33594 153.334 42.0023 96.1914 108.95 96.1914C175.897 96.1914 223.236 153.334 223.236 153.334" stroke="#F8F8F8" stroke-width="40" stroke-linecap="round"/>
<path d="M51.8594 206.181C51.8594 206.181 74.281 177.609 109.002 177.609C143.723 177.609 166.145 206.181 166.145 206.181" stroke="#F8F8F8" stroke-width="40" stroke-linecap="round"/>
</svg>
