<svg width="430" height="602" viewBox="0 0 430 602" fill="none" xmlns="http://www.w3.org/2000/svg">
<circle cx="128.688" cy="301" r="281" stroke="#F8F8F8" stroke-width="40"/>
<path d="M128.688 582C149.975 582 167.86 570.424 181.75 554.757C195.661 539.068 207.274 517.505 216.622 492.577C235.374 442.574 246.563 374.836 246.563 301C246.563 227.164 235.374 159.426 216.622 109.423C207.274 84.4947 195.661 62.9323 181.75 47.2425C167.86 31.576 149.975 20 128.688 20C107.4 20 89.5149 31.5761 75.625 47.2425C61.7144 62.9323 50.1008 84.4947 40.7528 109.423C22.0015 159.426 10.8125 227.164 10.8125 301C10.8125 374.836 22.0015 442.574 40.7528 492.577C50.1008 517.505 61.7144 539.068 75.625 554.757C89.5149 570.424 107.4 582 128.688 582Z" stroke="#F8F8F8" stroke-width="40"/>
<path d="M-83.375 137.875C-83.375 137.875 -1.81249 186.812 128.688 186.812C259.188 186.812 340.75 137.875 340.75 137.875M-83.375 464.125C-83.375 464.125 -1.81249 415.188 128.688 415.188C259.188 415.188 340.75 464.125 340.75 464.125" stroke="#F8F8F8" stroke-width="40" stroke-linecap="round"/>
<path d="M-148.625 301H406" stroke="#F8F8F8" stroke-width="40" stroke-linecap="round"/>
</svg>
