<svg width="56" height="56" viewBox="0 0 56 56" fill="none" xmlns="http://www.w3.org/2000/svg">
<g clip-path="url(#clip0_2932_2191)">
<mask id="mask0_2932_2191" style="mask-type:luminance" maskUnits="userSpaceOnUse" x="0" y="0" width="56" height="56">
<path d="M56 0H0V56H56V0Z" fill="white"/>
</mask>
<g mask="url(#mask0_2932_2191)">
<path d="M30.7278 5.73914L30.7348 5.74318L30.7417 5.74711C35.3963 8.35703 40.4341 10.2208 45.67 11.27C46.89 11.527 47.9846 12.1916 48.7725 13.1528C49.5605 14.1142 49.9945 15.3148 50.003 16.555V20.5789V20.5835C50.0295 25.9995 48.6603 31.332 46.0264 36.0705C43.3923 40.809 39.5817 44.7952 34.9585 47.6474L34.9576 47.6479L30.8601 50.1821L30.8575 50.1837C29.9998 50.7179 29.0082 51.0015 27.9961 51.0015C26.9839 51.0015 25.9924 50.7179 25.1348 50.1837L25.132 50.1819L21.0321 47.6478C16.411 44.7943 12.6022 40.8072 9.97025 36.0688C7.33832 31.3304 5.97086 25.9987 5.99846 20.5837V20.5789V16.555C6.00704 15.3148 6.44101 14.1143 7.22907 13.1528C8.01692 12.1916 9.11145 11.527 10.3314 11.27C15.5674 10.2208 20.6051 8.35704 25.2597 5.74711L25.2667 5.74318L25.2737 5.73914C26.1005 5.2565 27.0418 5.00195 28.0007 5.00195C28.9596 5.00195 29.9009 5.2565 30.7278 5.73914Z" stroke="#202020" stroke-width="2"/>
<path d="M17.7706 33.2048C17.293 33.2048 16.8257 32.9525 16.4616 32.4756C16.0972 31.9982 15.8574 31.3169 15.8574 30.5438C15.8574 29.7706 16.0972 29.0893 16.4616 28.612C16.8257 28.1351 17.293 27.8828 17.7706 27.8828H18.075V33.2048H17.7706Z" stroke="#202020"/>
<path d="M38.2302 33.2048H37.9258V27.8828H38.2302C38.7078 27.8828 39.1751 28.1351 39.5391 28.612C39.9035 29.0893 40.1433 29.7706 40.1433 30.5438C40.1433 31.3169 39.9035 31.9982 39.5391 32.4756C39.1751 32.9525 38.7078 33.2048 38.2302 33.2048Z" stroke="#202020"/>
<path d="M18.0879 31.4736V23.875H37.913V31.4736C37.913 36.9481 33.475 41.3861 28.0005 41.3861C22.526 41.3861 18.0879 36.9481 18.0879 31.4736Z" stroke="#202020"/>
<path d="M23.3733 16.4297H21.0594C18.5037 16.4297 16.4316 18.5018 16.4316 21.0575V25.1068C16.4316 25.4262 16.6908 25.6853 17.0101 25.6853H19.9025C22.4582 25.6853 24.5303 23.6132 24.5303 21.0575V17.5867C24.5303 16.9475 24.0125 16.4297 23.3733 16.4297Z" fill="#202020"/>
<path d="M32.6281 14.1211H25.6863C23.1307 14.1211 21.0586 16.1932 21.0586 18.7488C21.0586 22.5824 24.1667 25.6906 28.0002 25.6906H38.9913C39.3106 25.6906 39.5698 25.4314 39.5698 25.1121V21.0627C39.5698 17.2292 36.4616 14.1211 32.6281 14.1211Z" fill="#202020"/>
<path d="M22.918 28.9079V28.829C22.918 28.2387 23.4028 27.7636 23.993 27.7756C24.5665 27.7873 25.0253 28.2555 25.0253 28.829V28.9934" stroke="#202020" stroke-width="1.24324" stroke-linecap="round"/>
<path d="M31.0996 28.9079V28.829C31.0996 28.2387 31.5845 27.7636 32.1746 27.7756C32.748 27.7873 33.2069 28.2555 33.2069 28.829V28.9934" stroke="#202020" stroke-width="1.24324" stroke-linecap="round"/>
<path d="M27.9973 37.2568C30.0775 37.2568 31.8355 35.8863 32.4192 33.9988C32.6297 33.3173 32.1004 32.6289 31.3878 32.6289H24.608C23.8884 32.6289 23.3649 33.3277 23.5801 34.0144C24.1822 35.9378 25.9739 37.2568 27.9973 37.2568Z" fill="#202020"/>
<path opacity="0.2" d="M28.4931 37.2278C28.331 37.2452 28.1633 37.2568 27.9955 37.2568C25.9767 37.2568 24.1834 35.9378 23.5817 34.0114C23.3678 33.3288 23.8883 32.6289 24.6115 32.6289H25.6065C24.8892 32.6289 24.3627 33.3288 24.5768 34.0114C25.1321 35.7758 26.6824 37.0311 28.4931 37.2278Z" fill="#202020"/>
</g>
</g>
<defs>
<clipPath id="clip0_2932_2191">
<rect width="56" height="56" fill="white"/>
</clipPath>
</defs>
</svg>
