<svg width="56" height="56" viewBox="0 0 56 56" fill="none" xmlns="http://www.w3.org/2000/svg">
<path d="M11.3904 16.0682C12.1212 16.0682 12.7136 15.4758 12.7136 14.7451C12.7136 14.0143 12.1212 13.4219 11.3904 13.4219V16.0682ZM43.8741 44.2939C43.8741 43.5631 43.2817 42.9706 42.5509 42.9706C41.8201 42.9706 41.2278 43.5631 41.2278 44.2939H43.8741ZM41.6688 45.6569H20.5165V48.3032H41.6688V45.6569ZM9.4901 34.6305V15.6272H6.84375V34.6305H9.4901ZM9.04904 16.0682H11.3904V13.4219H9.04904V16.0682ZM41.2278 44.2939V46.098H43.8741V44.2939H41.2278ZM20.5165 45.6569C14.4268 45.6569 9.4901 40.7202 9.4901 34.6305H6.84375C6.84375 42.1817 12.9653 48.3032 20.5165 48.3032V45.6569ZM41.6688 48.3032C42.8868 48.3032 43.8741 47.3159 43.8741 46.098H41.2278C41.2278 45.8544 41.4252 45.6569 41.6688 45.6569V48.3032ZM9.4901 15.6272C9.4901 15.8708 9.29263 16.0682 9.04904 16.0682V13.4219C7.8311 13.4219 6.84375 14.4092 6.84375 15.6272H9.4901Z" fill="#202020"/>
<path fill-rule="evenodd" clip-rule="evenodd" d="M16.1392 8.16602C15.1648 8.16602 14.375 8.95588 14.375 9.93025V32.6543C14.375 37.5261 18.3244 41.4755 23.1962 41.4755H45.9203C46.8947 41.4755 47.6845 40.6857 47.6845 39.7113V20.5156C47.6845 13.6951 42.1554 8.16602 35.3349 8.16602H16.1392ZM31.024 33.0417C35.5675 33.0417 39.2507 29.3585 39.2507 24.815C39.2507 20.2716 35.5675 16.5884 31.024 16.5884C26.4806 16.5884 22.7974 20.2716 22.7974 24.815C22.7974 29.3585 26.4806 33.0417 31.024 33.0417Z" fill="#202020"/>
<path d="M15.697 9.93116C15.697 9.68757 15.8945 9.4901 16.1381 9.4901V6.84375C14.433 6.84375 13.0508 8.22603 13.0508 9.93116H15.697ZM15.697 32.6553V9.93116H13.0508V32.6553H15.697ZM23.1951 40.1533C19.054 40.1533 15.697 36.7963 15.697 32.6553H13.0508C13.0508 38.2578 17.5925 42.7997 23.1951 42.7997V40.1533ZM45.9192 40.1533H23.1951V42.7997H45.9192V40.1533ZM46.3603 39.7122C46.3603 39.9558 46.1628 40.1533 45.9192 40.1533V42.7997C47.6243 42.7997 49.0066 41.4173 49.0066 39.7122H46.3603ZM46.3603 20.5166V39.7122H49.0066V20.5166H46.3603ZM35.3338 9.4901C41.4235 9.4901 46.3603 14.4268 46.3603 20.5166H49.0066C49.0066 12.9653 42.8851 6.84375 35.3338 6.84375V9.4901ZM16.1381 9.4901H35.3338V6.84375H16.1381V9.4901ZM37.9265 24.816C37.9265 28.6286 34.8356 31.7195 31.0229 31.7195V34.3658C36.2972 34.3658 40.5728 30.0902 40.5728 24.816H37.9265ZM31.0229 17.9126C34.8356 17.9126 37.9265 21.0033 37.9265 24.816H40.5728C40.5728 19.5418 36.2972 15.2662 31.0229 15.2662V17.9126ZM24.1195 24.816C24.1195 21.0033 27.2103 17.9126 31.0229 17.9126V15.2662C25.7488 15.2662 21.4732 19.5418 21.4732 24.816H24.1195ZM31.0229 31.7195C27.2103 31.7195 24.1195 28.6286 24.1195 24.816H21.4732C21.4732 30.0902 25.7488 34.3658 31.0229 34.3658V31.7195Z" fill="#202020"/>
</svg>
