<svg width="56" height="56" viewBox="0 0 56 56" fill="none" xmlns="http://www.w3.org/2000/svg">
<path d="M20.7511 5.04902L20.7513 5.0491L36.6934 10.0774C36.6934 10.0774 36.6935 10.0774 36.6935 10.0774C38.5593 10.6662 40.1887 11.8336 41.3451 13.4102C42.5016 14.9868 43.125 16.8905 43.125 18.845V34.5662C43.125 41.0199 36.849 45.6185 30.6855 43.6744L15.875 39.0029V8.61563C15.8753 8.0279 16.0142 7.44864 16.2804 6.92445C16.5467 6.40019 16.9328 5.94589 17.4077 5.59843C17.8825 5.25096 18.4327 5.02011 19.0136 4.92465C19.5945 4.82918 20.1898 4.87179 20.7511 5.04902Z" stroke="#202020" stroke-width="1.75"/>
<path d="M30.6755 43.6918L18.8315 40.1113L43.0635 36.0444C42.4032 41.6093 36.5306 45.4618 30.6755 43.6918Z" stroke="#202020" stroke-width="1.75"/>
<path d="M12 18.2347V22.421L17.7611 21.3745L36.4115 17.9882V33.3313C36.4115 35.0299 35.8334 36.6742 34.7788 37.9748C33.7241 39.2754 32.2606 40.1491 30.6455 40.4422L17.7611 42.7828L12 43.8284V52L33.1848 48.143C36.2138 47.5914 38.9584 45.9517 40.9363 43.5119C42.9142 41.0721 43.999 37.9883 44 34.8022V18.2529C44.0001 17.0481 43.7455 15.8579 43.2542 14.7659C42.7629 13.674 42.0467 12.7067 41.156 11.932C40.2653 11.1574 39.2217 10.5942 38.0985 10.2819C36.9753 9.96971 35.7997 9.91606 34.6543 10.1247L15.7903 13.5595C14.7287 13.7526 13.7668 14.3272 13.0736 15.1822C12.3804 16.0373 12.0003 17.1181 12 18.2347Z" fill="#202020"/>
</svg>
