<svg width="56" height="56" viewBox="0 0 56 56" fill="none" xmlns="http://www.w3.org/2000/svg">
<path d="M19.4227 3.80078H36.5788C45.2066 3.80078 52.2008 10.795 52.2008 19.4227V36.5788C52.2008 45.2066 45.2066 52.2008 36.5788 52.2008H19.4227C10.795 52.2008 3.80078 45.2066 3.80078 36.5788V19.4227C3.80078 10.795 10.795 3.80078 19.4227 3.80078Z" stroke="#202020" stroke-width="2"/>
<path d="M42.2239 34.1838C38.4398 35.9915 33.3892 36.9865 28.001 36.9865C22.6128 36.9865 17.5627 35.9915 13.778 34.1838C10.2524 32.4995 8.23047 30.2457 8.23047 28.0001C8.23047 25.7545 10.253 23.5007 13.778 21.8164C17.5616 20.0087 22.6122 19.0137 28.001 19.0137C33.3897 19.0137 38.4386 20.0087 42.2239 21.8164C45.7507 23.5007 47.7715 25.7545 47.7715 28.0001C47.7715 30.2457 45.749 32.4995 42.2239 34.1838Z" fill="#202020"/>
<path d="M18.0148 28.4769C18.3523 28.7893 18.8567 28.9455 19.5279 28.9455C19.8541 28.9479 20.1786 28.8996 20.4899 28.8021C20.7727 28.7141 21.038 28.5773 21.2736 28.3979C21.4937 28.228 21.6736 28.0118 21.8007 27.7646C21.931 27.5043 21.9967 27.2165 21.9925 26.9254V26.7537C22.0688 26.8397 22.1668 26.9037 22.2763 26.939C22.4062 26.9781 22.5414 26.9966 22.6771 26.9939H22.814C23.1059 26.9939 23.3434 26.9516 23.5263 26.867C23.7095 26.7817 23.8659 26.6478 23.9784 26.4798C24.0774 26.6296 24.2069 26.7569 24.3584 26.8534C24.5068 26.9466 24.711 26.9935 24.971 26.9939C25.1436 26.9938 25.3149 26.9649 25.478 26.9083C25.642 26.8512 25.7925 26.7198 25.9295 26.5141C25.986 26.5975 26.0553 26.6716 26.1348 26.7336C26.2847 26.8474 26.4578 26.9268 26.6418 26.9661C26.7228 26.9839 26.8055 26.9932 26.8885 26.9939C27.0782 26.9986 27.2647 26.9446 27.4226 26.8392C27.564 26.745 27.6845 26.6226 27.7767 26.4798C27.8306 26.583 27.9051 26.674 27.9956 26.7472C28.0793 26.8138 28.1729 26.867 28.273 26.9047C28.3702 26.9408 28.4715 26.965 28.5746 26.9767C28.6725 26.9877 28.7711 26.9935 28.8696 26.9939H29.0066C29.2286 26.9951 29.4497 26.9651 29.6634 26.9047C29.8638 26.8481 30.0496 26.7489 30.2081 26.6138C30.3729 26.4689 30.5007 26.2868 30.5811 26.0826C30.679 25.8273 30.7256 25.5552 30.718 25.2818C30.718 25.2228 30.718 25.1378 30.708 25.0286C30.698 24.9194 30.6909 24.7979 30.6773 24.6657C30.6637 24.5335 30.6484 24.3948 30.6325 24.2525C30.6165 24.1103 30.5994 23.9728 30.5811 23.8447L29.5542 24.0159C29.6042 24.4266 29.6396 24.7414 29.6605 24.9601C29.6813 25.1789 29.6916 25.332 29.6912 25.4193C29.6906 25.4483 29.6822 25.4766 29.667 25.5013C29.6432 25.5353 29.6099 25.5616 29.5714 25.5769C29.5078 25.6048 29.441 25.6246 29.3725 25.6359C29.2629 25.6542 29.1519 25.6623 29.0408 25.6601H28.8696C28.6462 25.6601 28.4874 25.6207 28.3934 25.5421C28.3001 25.4624 28.2529 25.3148 28.2529 25.1006V24.3576H27.334C27.334 24.6503 27.3272 24.8821 27.3134 25.0528C27.3066 25.1849 27.2848 25.3157 27.2485 25.4429C27.2321 25.5158 27.1878 25.5794 27.1251 25.62C27.0622 25.6498 26.9929 25.664 26.9233 25.6613C26.8375 25.6615 26.7521 25.6488 26.6701 25.6235C26.5762 25.5908 26.493 25.5328 26.4299 25.4559C26.4346 25.3961 26.4382 25.3253 26.4405 25.2434C26.4429 25.1616 26.4441 25.0772 26.4441 24.9902V24.4969H25.5193C25.5215 24.6879 25.5125 24.8788 25.4921 25.0687C25.4804 25.1906 25.4504 25.31 25.403 25.4228C25.3721 25.5 25.3167 25.5648 25.2455 25.6076C25.171 25.6441 25.0887 25.6618 25.0058 25.6589C24.9154 25.6584 24.8255 25.6445 24.7391 25.6176C24.6902 25.6011 24.645 25.5751 24.6062 25.5411C24.5674 25.5071 24.5357 25.4657 24.5131 25.4193C24.5172 25.3603 24.5207 25.2912 24.5231 25.2139C24.5255 25.1366 24.5266 25.0552 24.5266 24.9708V24.4945H23.6018C23.6045 24.6917 23.5943 24.8888 23.5712 25.0847C23.5604 25.2104 23.52 25.3318 23.4531 25.4388C23.3956 25.5232 23.3111 25.5856 23.2135 25.6158C23.0842 25.6514 22.9504 25.6676 22.8163 25.6636H22.6794C22.5849 25.6649 22.4905 25.6546 22.3985 25.6329C22.3191 25.6137 22.2453 25.5761 22.1831 25.5232C22.1174 25.4642 22.0688 25.3885 22.0426 25.3042C22.0076 25.1877 21.9914 25.0664 21.9948 24.9448V21.9609L20.9325 22.0642L21.0352 26.9944C21.0303 27.0744 20.9963 27.1497 20.9396 27.2063C20.8611 27.2901 20.7668 27.3577 20.6622 27.4052C20.519 27.4717 20.3685 27.521 20.2137 27.5522C20.011 27.5937 19.8045 27.6135 19.5976 27.6112C19.4305 27.6146 19.2636 27.5961 19.1013 27.5563C18.9825 27.5268 18.8705 27.4747 18.7714 27.4028C18.6918 27.3449 18.6291 27.2669 18.5896 27.1768C18.5521 27.0855 18.5335 26.9875 18.5347 26.8888C18.5347 26.8298 18.5347 26.7578 18.5418 26.6734C18.5489 26.589 18.5577 26.4887 18.576 26.3718C18.5943 26.255 18.6191 26.1186 18.6516 25.9587C18.684 25.7988 18.7241 25.62 18.7749 25.4146L17.9528 25.175C17.7952 25.5714 17.6737 25.9813 17.5898 26.3996C17.5432 26.6401 17.5158 26.8841 17.5078 27.129C17.5078 27.7148 17.6768 28.1642 18.0148 28.4769Z" fill="white"/>
<path d="M30.004 23.3648L30.6201 22.7487V22.646L30.004 22.0293H29.9013L29.2852 22.646V22.7487L29.9013 23.3648H30.004Z" fill="white"/>
<path d="M32.2994 26.9596V21.9609L31.2383 22.0636L31.341 27.0275L32.2994 26.9596Z" fill="white"/>
<path d="M32.0248 28.809C32.7184 28.7905 33.2651 28.6091 33.6648 28.2649C34.0646 27.9206 34.2892 27.415 34.3388 26.7481C34.4154 26.8356 34.5134 26.9017 34.6233 26.9399C34.7461 26.9789 34.8745 26.9974 35.0033 26.9948H35.1426C35.3648 26.9961 35.5862 26.9661 35.8 26.9057C36.0002 26.8489 36.1858 26.7497 36.3442 26.6148C36.5091 26.47 36.637 26.2879 36.7172 26.0836C36.8151 25.8283 36.8616 25.5561 36.8541 25.2828C36.8541 25.2233 36.8505 25.1389 36.8435 25.0296C36.837 24.9198 36.8263 24.7988 36.8128 24.6666C36.7992 24.5344 36.7844 24.3957 36.7685 24.2535C36.7526 24.1113 36.7349 23.9738 36.7166 23.8457L35.6897 24.0169C35.74 24.4276 35.7755 24.7424 35.7959 24.9611C35.8164 25.1799 35.8266 25.3329 35.8266 25.4203C35.826 25.4492 35.8178 25.4775 35.803 25.5023C35.7788 25.5362 35.7454 25.5624 35.7068 25.5778C35.6434 25.6057 35.5768 25.6256 35.5085 25.6369C35.3987 25.6551 35.2875 25.6632 35.1762 25.661H35.0051C34.8785 25.6642 34.752 25.6515 34.6286 25.6233C34.5299 25.5966 34.4438 25.536 34.3854 25.4521C34.3052 25.3352 34.2453 25.2055 34.2084 25.0685C34.1584 24.9021 34.1037 24.6772 34.0443 24.394L33.018 24.6666C33.1231 25.2174 33.2017 25.675 33.2541 26.0393C33.2934 26.2875 33.3185 26.5378 33.329 26.7889C33.3165 26.8662 33.2873 26.9399 33.2435 27.0049C33.1777 27.0974 33.0938 27.1755 32.9968 27.2344C32.8491 27.3268 32.692 27.4032 32.5282 27.4622C32.286 27.5519 32.0377 27.6241 31.7852 27.6782L32.0248 28.809Z" fill="white"/>
<path d="M36.1947 27.3828L35.6128 27.9647L35.0309 27.3828H34.9282L34.3457 27.9647V28.0674L34.9282 28.6493H35.0309L35.6128 28.0674L36.1947 28.6493H36.2974L36.8793 28.0674V27.9647L36.2974 27.3828H36.1947Z" fill="white"/>
<path d="M38.4264 26.9596V21.9609L37.3652 22.0636L37.4679 27.0275L38.4264 26.9596Z" fill="white"/>
<path d="M18.8867 29.8759V29.9786L19.5028 30.5953H19.6055L20.2217 29.9786V29.8759L19.6055 29.2598H19.5028L18.8867 29.8759Z" fill="white"/>
<path d="M38.4394 29.9311C38.387 29.7346 38.2975 29.5499 38.1756 29.387C38.0624 29.2374 37.9159 29.1161 37.7477 29.0329C37.5636 28.9451 37.3615 28.9019 37.1576 28.9066C37.0008 28.9034 36.845 28.9313 36.699 28.9886C36.5642 29.0452 36.4411 29.1264 36.3361 29.2282C36.2168 29.3448 36.1111 29.4745 36.0209 29.6148C35.9115 29.7841 35.811 29.959 35.7199 30.1389C35.6625 30.255 35.5888 30.3623 35.501 30.4576C35.4298 30.5321 35.3478 30.5955 35.2578 30.6458C35.1735 30.6911 35.0818 30.7211 34.987 30.7343C34.8892 30.7485 34.7906 30.7554 34.6919 30.755H22.5056C22.4073 30.7559 22.3097 30.7397 22.217 30.7072C22.1282 30.6723 22.0526 30.6104 22.001 30.5301C21.9262 30.4114 21.8697 30.2821 21.8334 30.1465C21.7725 29.9292 21.7232 29.7087 21.6858 29.4861L20.6566 29.7629C20.6885 29.9412 20.7227 30.1465 20.7593 30.3791C20.7959 30.6116 20.8293 30.84 20.8596 31.0642C20.8915 31.2905 20.9167 31.4958 20.9351 31.6804C20.9536 31.8649 20.9627 32.0008 20.9623 32.0882C20.9583 32.1669 20.927 32.2418 20.8738 32.3C20.7995 32.3843 20.7084 32.452 20.6064 32.4989C20.4669 32.5653 20.3199 32.6146 20.1685 32.6459C19.9681 32.6877 19.7636 32.7075 19.5589 32.7049C19.3918 32.7083 19.2249 32.6898 19.0626 32.65C18.9444 32.6212 18.8328 32.5702 18.7338 32.4995C18.6542 32.4417 18.5914 32.3637 18.5521 32.2735C18.5146 32.1824 18.4959 32.0846 18.4972 31.9861C18.4972 31.9271 18.4972 31.8551 18.5043 31.7701C18.5113 31.6851 18.5202 31.5854 18.5385 31.4691C18.5568 31.3528 18.5816 31.2153 18.614 31.056C18.6465 30.8966 18.6866 30.7166 18.7374 30.5113L17.9153 30.2716C17.7586 30.668 17.6379 31.0777 17.5547 31.4956C17.5081 31.7362 17.4806 31.9802 17.4727 32.2251C17.4727 32.8094 17.6416 33.2579 17.9796 33.5707C18.3176 33.8835 18.822 34.0408 19.4928 34.0428C19.819 34.045 20.1435 33.9964 20.4548 33.8988C20.7379 33.8112 21.0034 33.6743 21.2391 33.4945C21.4592 33.3248 21.6392 33.1086 21.7661 32.8613C21.8964 32.6012 21.9622 32.3135 21.9579 32.0227V31.9636C21.9577 31.9385 21.9553 31.9134 21.9508 31.8887C22.0054 31.9518 22.075 32.0001 22.1532 32.0292C22.2655 32.0752 22.3861 32.0973 22.5073 32.0941H34.6936C34.9089 32.0917 35.1204 32.0377 35.3104 31.9365C35.5242 31.8235 35.7021 31.6528 35.8238 31.4437C35.8742 31.6306 36.0237 31.7915 36.2723 31.9265C36.521 32.0614 36.8851 32.1271 37.3647 32.1236C37.5127 32.1232 37.6587 32.0904 37.7926 32.0274C37.9365 31.9601 38.0638 31.8619 38.1656 31.74C38.2822 31.6004 38.3717 31.4403 38.4294 31.2678C38.4989 31.0586 38.5325 30.8391 38.5285 30.6187C38.5309 30.3865 38.5009 30.1551 38.4394 29.9311ZM37.0596 30.7904C36.9509 30.7805 36.8439 30.7562 36.7415 30.7184C36.6802 30.6982 36.6257 30.6614 36.5839 30.6122C36.5585 30.5799 36.5441 30.5405 36.5426 30.4995C36.5433 30.4467 36.5537 30.3945 36.5733 30.3454C36.6025 30.2771 36.6381 30.2117 36.6795 30.1501C36.7428 30.1245 36.8102 30.1107 36.8784 30.1094C36.9605 30.1046 37.0195 30.1023 37.0555 30.1023C37.2475 30.1023 37.3834 30.156 37.4633 30.2634C37.5432 30.3708 37.5825 30.5453 37.5813 30.7869C37.4079 30.805 37.2332 30.8061 37.0596 30.7904Z" fill="white"/>
</svg>
