<svg width="56" height="56" viewBox="0 0 56 56" fill="none" xmlns="http://www.w3.org/2000/svg">
<path d="M51.8312 16.1676V28.7626C51.8315 29.8358 51.56 30.8917 51.0421 31.8317C50.5242 32.7717 49.7768 33.5654 48.8694 34.1386L42.6349 38.0737C41.7693 38.6202 40.7732 38.9251 39.75 38.9569C38.7268 38.9886 37.7137 38.7459 36.8159 38.254L28.6209 33.764C28.5699 33.7361 28.5139 33.7188 28.4562 33.7132C28.3984 33.7076 28.3402 33.7137 28.2848 33.7312C28.2295 33.7487 28.1782 33.7771 28.1341 33.8149C28.0901 33.8527 28.0541 33.899 28.0284 33.951L25.3863 39.2934C25.3372 39.3926 25.3284 39.507 25.3616 39.6127C25.3947 39.7184 25.4674 39.8072 25.5644 39.8607L33.844 44.4269C35.6415 45.4181 37.672 45.9088 39.7237 45.848C41.7754 45.7871 43.7732 45.1768 45.5088 44.0808L50.5359 40.9062C52.1234 39.9036 53.4313 38.5154 54.3376 36.8711C55.2439 35.2267 55.7193 33.3797 55.7193 31.5021V15.4105C55.7193 14.0144 55.1647 12.6755 54.1775 11.6882C53.1903 10.7011 51.8514 10.1465 50.4553 10.1465H41.7512C41.699 10.1464 41.6474 10.1566 41.5992 10.1766C41.551 10.1965 41.5072 10.2257 41.4703 10.2626C41.4334 10.2995 41.4042 10.3433 41.3842 10.3915C41.3643 10.4397 41.3541 10.4914 41.3542 10.5435V14.9748C41.3541 15.027 41.3643 15.0787 41.3842 15.1269C41.4041 15.1752 41.4334 15.219 41.4703 15.2559C41.5071 15.2928 41.5509 15.3221 41.5991 15.3422C41.6473 15.3621 41.699 15.3724 41.7512 15.3724H51.0366C51.141 15.3724 51.2444 15.3929 51.3409 15.4328C51.4374 15.4727 51.525 15.5313 51.5988 15.6052C51.6726 15.679 51.7312 15.7667 51.771 15.8633C51.8109 15.9598 51.8313 16.0632 51.8312 16.1676Z" fill="#202020"/>
<path d="M27.8205 31.7346C25.6085 33.7181 23.9565 36.9258 23.3372 40.1206C23.1327 41.1779 22.4831 41.3167 21.8778 40.4263L15.878 31.6035C15.7955 31.4824 15.7477 31.341 15.7395 31.1947C15.7314 31.0485 15.7633 30.9027 15.8317 30.7732C15.9002 30.6436 16.0026 30.5351 16.1281 30.4594C16.2535 30.3838 16.3973 30.3437 16.5438 30.3435L27.2796 30.3301C28.4354 30.3284 28.6812 30.9629 27.8205 31.7346Z" fill="#202020"/>
<path d="M35.9781 25.566H34.3743C33.5648 25.566 32.7885 25.2445 32.2162 24.6721C31.6438 24.0997 31.3223 23.3235 31.3223 22.514V20.3714C31.3223 20.303 31.3494 20.2373 31.3979 20.1889C31.4463 20.1405 31.512 20.1133 31.5804 20.1133H33.3354C33.3694 20.1132 33.403 20.1198 33.4343 20.1328C33.4657 20.1457 33.4942 20.1648 33.5182 20.1887C33.5421 20.2128 33.5612 20.2412 33.5741 20.2726C33.5871 20.3039 33.5937 20.3375 33.5936 20.3714V23.2958H36.7587V20.3726C36.7587 20.3041 36.7859 20.2384 36.8344 20.19C36.8828 20.1416 36.9484 20.1144 37.0169 20.1144H38.772C38.8059 20.1144 38.8395 20.121 38.8708 20.1339C38.9021 20.1469 38.9307 20.1659 38.9546 20.1899C38.9787 20.2138 38.9977 20.2423 39.0106 20.2737C39.0235 20.3051 39.0302 20.3387 39.0301 20.3726V22.5118C39.0304 22.9128 38.9517 23.3099 38.7985 23.6804C38.6452 24.051 38.4204 24.3877 38.137 24.6713C37.8536 24.955 37.517 25.18 37.1466 25.3335C36.7762 25.487 36.3791 25.566 35.9781 25.566Z" fill="#202020"/>
<path d="M30.5411 25.566H25.0027C24.6017 25.5659 24.2047 25.4869 23.8343 25.3333C23.464 25.1798 23.1275 24.9548 22.8441 24.6711C22.5608 24.3875 22.3361 24.0508 22.1828 23.6803C22.0296 23.3097 21.9509 22.9127 21.9512 22.5118V20.3714C21.9512 20.303 21.9784 20.2373 22.0268 20.1889C22.0753 20.1405 22.1409 20.1133 22.2093 20.1133H23.9644C23.9983 20.1132 24.0319 20.1198 24.0633 20.1328C24.0946 20.1457 24.1231 20.1648 24.1471 20.1887C24.1711 20.2128 24.1901 20.2412 24.2031 20.2726C24.216 20.3039 24.2226 20.3375 24.2226 20.3714V23.2958H31.3217V20.3726C31.3217 20.3041 31.3489 20.2384 31.3973 20.19C31.4457 20.1416 31.5114 20.1144 31.5798 20.1144H33.3349C33.3688 20.1144 33.4024 20.121 33.4338 20.1339C33.4651 20.1469 33.4936 20.1659 33.5176 20.1899C33.5416 20.2138 33.5606 20.2423 33.5736 20.2737C33.5865 20.3051 33.5931 20.3387 33.5931 20.3726V22.5118C33.5933 22.9128 33.5146 23.3099 33.3614 23.6804C33.2081 24.051 32.9834 24.3877 32.6999 24.6713C32.4165 24.955 32.0799 25.18 31.7095 25.3335C31.3391 25.487 30.942 25.566 30.5411 25.566Z" fill="#202020"/>
<path d="M45.0313 17.8418H41.5279C41.494 17.8417 41.4604 17.8483 41.429 17.8613C41.3976 17.8743 41.3692 17.8933 41.3452 17.9172C41.3212 17.9413 41.3022 17.9697 41.2892 18.0011C41.2763 18.0324 41.2697 18.066 41.2697 18.1V19.855C41.2697 19.8889 41.2763 19.9225 41.2892 19.9539C41.3022 19.9853 41.3212 20.0137 41.3452 20.0378C41.3692 20.0617 41.3976 20.0807 41.429 20.0937C41.4604 20.1067 41.494 20.1133 41.5279 20.1132H45.0307C45.2386 20.1132 45.4381 20.1957 45.585 20.3428C45.7321 20.4898 45.8147 20.6892 45.8147 20.8972V22.5116C45.8147 22.7196 45.7321 22.919 45.585 23.066C45.4381 23.2131 45.2386 23.2956 45.0307 23.2956H39.8042C39.599 23.2952 39.4025 23.2133 39.2577 23.068C39.1128 22.9226 39.0317 22.7258 39.032 22.5206V20.3714C39.032 20.3374 39.0254 20.3038 39.0125 20.2724C38.9995 20.2411 38.9805 20.2126 38.9565 20.1886C38.9326 20.1647 38.9041 20.1456 38.8727 20.1327C38.8413 20.1197 38.8077 20.1131 38.7738 20.1132H37.016C36.9821 20.1131 36.9485 20.1197 36.9171 20.1327C36.8857 20.1456 36.8572 20.1647 36.8333 20.1886C36.8093 20.2126 36.7903 20.2411 36.7773 20.2724C36.7644 20.3038 36.7578 20.3374 36.7578 20.3714V21.9718C36.7579 22.925 37.1367 23.8391 37.8107 24.513C38.4846 25.187 39.3987 25.5658 40.3519 25.5659H45.0301C45.431 25.5659 45.8278 25.4869 46.1981 25.3336C46.5684 25.1802 46.9048 24.9554 47.1882 24.672C47.4716 24.3886 47.6964 24.0521 47.8498 23.6818C48.0032 23.3115 48.0821 22.9147 48.0821 22.5139V20.8944C48.0823 20.085 47.7609 19.3087 47.1888 18.7363C46.6167 18.1639 45.8406 17.8421 45.0313 17.8418Z" fill="#202020"/>
<path d="M33.4066 26.625H35.1767V28.6533H33.4066C33.3727 28.6533 33.3391 28.6467 33.3078 28.6337C33.2765 28.6207 33.248 28.6017 33.224 28.5777C33.2 28.5537 33.181 28.5253 33.1681 28.494C33.1551 28.4626 33.1484 28.4291 33.1484 28.3952V26.8832C33.1484 26.8147 33.1756 26.749 33.224 26.7006C33.2725 26.6522 33.3381 26.625 33.4066 26.625Z" fill="#202020"/>
<path d="M34.6211 26.625H36.9462C37.0147 26.625 37.0804 26.6522 37.1288 26.7006C37.1772 26.749 37.2044 26.8147 37.2044 26.8832V28.3952C37.2044 28.4636 37.1772 28.5293 37.1288 28.5777C37.0804 28.6262 37.0147 28.6533 36.9462 28.6533H34.6211V26.625Z" fill="#202020"/>
<path d="M42.5163 26.625H41.0043C40.8617 26.625 40.7461 26.7406 40.7461 26.8832V28.3952C40.7461 28.5377 40.8617 28.6533 41.0043 28.6533H42.5163C42.6588 28.6533 42.7744 28.5377 42.7744 28.3952V26.8832C42.7744 26.7406 42.6588 26.625 42.5163 26.625Z" fill="#202020"/>
<path d="M28.5279 26.625H27.0159C26.8733 26.625 26.7578 26.7406 26.7578 26.8832V28.3952C26.7578 28.5377 26.8733 28.6533 27.0159 28.6533H28.5279C28.6705 28.6533 28.7861 28.5377 28.7861 28.3952V26.8832C28.7861 26.7406 28.6705 26.625 28.5279 26.625Z" fill="#202020"/>
<path d="M15.6627 26.625H14.1507C14.0082 26.625 13.8926 26.7406 13.8926 26.8832V28.3952C13.8926 28.5377 14.0082 28.6533 14.1507 28.6533H15.6627C15.8053 28.6533 15.9209 28.5377 15.9209 28.3952V26.8832C15.9209 26.7406 15.8053 26.625 15.6627 26.625Z" fill="#202020"/>
<path d="M2.81033 18.0879H4.58049V20.1162H2.55273V18.3433C2.55347 18.2754 2.58092 18.2105 2.62913 18.1628C2.67734 18.1149 2.74244 18.0881 2.81033 18.0879Z" fill="#202020"/>
<path d="M4.58008 18.0879H6.35025C6.41871 18.0879 6.4844 18.1151 6.53279 18.1635C6.58117 18.212 6.60842 18.2776 6.60842 18.3461V19.8581C6.60842 19.9266 6.58117 19.9922 6.53279 20.0407C6.4844 20.089 6.41871 20.1162 6.35025 20.1162H4.58008V18.0879Z" fill="#202020"/>
<path d="M8.87162 25.566H3.33325C2.93227 25.566 2.53521 25.487 2.16478 25.3335C1.79435 25.18 1.4578 24.955 1.17437 24.6713C0.890935 24.3877 0.666173 24.051 0.512927 23.6804C0.359682 23.3099 0.280956 22.9128 0.281251 22.5118V20.3714C0.281177 20.3375 0.287804 20.3039 0.300751 20.2726C0.313699 20.2412 0.332712 20.2128 0.356699 20.1887C0.380686 20.1648 0.409175 20.1457 0.44053 20.1328C0.471884 20.1198 0.505488 20.1132 0.539411 20.1133H2.55541V23.2958H9.65229V20.3726C9.65222 20.3387 9.65883 20.3051 9.67179 20.2737C9.68475 20.2423 9.70376 20.2138 9.72773 20.1899C9.7517 20.1659 9.7802 20.1469 9.81154 20.1339C9.84294 20.121 9.87654 20.1144 9.91045 20.1144H11.6655C11.734 20.1144 11.7996 20.1416 11.8481 20.19C11.8964 20.2384 11.9236 20.3041 11.9236 20.3726V22.5118C11.9239 22.9128 11.8452 23.3099 11.6919 23.6804C11.5387 24.051 11.314 24.3877 11.0305 24.6713C10.7471 24.955 10.4106 25.18 10.0401 25.3335C9.66971 25.487 9.27262 25.566 8.87162 25.566Z" fill="#202020"/>
<path d="M17.5318 17.8418H14.8152C14.7813 17.8417 14.7477 17.8483 14.7163 17.8613C14.685 17.8743 14.6565 17.8933 14.6325 17.9172C14.6085 17.9413 14.5895 17.9697 14.5766 18.0011C14.5636 18.0325 14.557 18.066 14.5571 18.1V19.855C14.557 19.8889 14.5636 19.9225 14.5766 19.9539C14.5895 19.9853 14.6085 20.0137 14.6325 20.0378C14.6565 20.0617 14.685 20.0807 14.7163 20.0937C14.7477 20.1067 14.7813 20.1133 14.8152 20.1132H17.5312C17.7387 20.1139 17.9374 20.1968 18.0838 20.3438C18.2302 20.4907 18.3124 20.6897 18.3124 20.8972V22.5116C18.3124 22.7191 18.2302 22.9181 18.0838 23.065C17.9374 23.212 17.7387 23.2949 17.5312 23.2956H12.6967C12.4915 23.2956 12.2947 23.2141 12.1495 23.069C12.0043 22.9238 11.9228 22.727 11.9228 22.5218V20.3714C11.9228 20.3028 11.8956 20.2372 11.8472 20.1888C11.7988 20.1404 11.7332 20.1132 11.6647 20.1132H9.9124C9.87849 20.1131 9.84489 20.1197 9.81355 20.1327C9.78222 20.1456 9.75371 20.1647 9.72974 20.1886C9.70571 20.2126 9.6867 20.2411 9.67374 20.2724C9.66084 20.3038 9.65417 20.3374 9.6543 20.3714V21.9718C9.6543 22.925 10.033 23.8392 10.707 24.5132C11.381 25.1872 12.2952 25.5659 13.2484 25.5659H17.5346C17.9354 25.5659 18.3322 25.4869 18.7025 25.3336C19.0728 25.1802 19.4092 24.9554 19.6927 24.672C19.9761 24.3886 20.2009 24.0521 20.3543 23.6818C20.5077 23.3115 20.5866 22.9147 20.5866 22.5139V20.8938C20.5866 20.4928 20.5075 20.0957 20.354 19.7252C20.2004 19.3547 19.9754 19.0182 19.6917 18.7347C19.408 18.4513 19.0712 18.2266 18.7006 18.0733C18.33 17.9201 17.9328 17.8414 17.5318 17.8418Z" fill="#202020"/>
</svg>
