<svg width="64" height="64" viewBox="0 0 64 64" fill="none" xmlns="http://www.w3.org/2000/svg">
<g clip-path="url(#clip0_2932_13372)">
<mask id="mask0_2932_13372" style="mask-type:luminance" maskUnits="userSpaceOnUse" x="0" y="0" width="64" height="64">
<path d="M64 0H0V64H64V0Z" fill="white"/>
</mask>
<g mask="url(#mask0_2932_13372)">
<path d="M35.6464 2.22897L35.6557 2.23439L35.665 2.23964C41.8894 5.72978 48.6262 8.22212 55.6281 9.62522C57.2596 9.96888 58.7233 10.8576 59.7769 12.143C60.8306 13.4287 61.411 15.0342 61.4225 16.6926V22.0737V22.0798C61.4578 29.3225 59.6269 36.4534 56.1046 42.7901C52.5822 49.1267 47.4864 54.4572 41.304 58.2714L41.3028 58.272L35.8233 61.661L35.8198 61.6631C34.6729 62.3775 33.3469 62.7567 31.9934 62.7567C30.6398 62.7567 29.314 62.3775 28.167 61.6631L28.1633 61.6607L22.6806 58.2719C16.501 54.456 11.4077 49.1243 7.88805 42.7878C4.36847 36.4512 2.53981 29.3214 2.57672 22.0801V22.0737V16.6926C2.5882 15.0342 3.16853 13.4287 4.22237 12.143C5.27595 10.8576 6.73961 9.96889 8.37104 9.62524C15.3729 8.22212 22.1097 5.7298 28.3341 2.23964L28.3434 2.23439L28.3528 2.22897C29.4585 1.58356 30.7173 1.24316 31.9996 1.24316C33.2818 1.24316 34.5406 1.58356 35.6464 2.22897Z" fill="#00AA5B" stroke="#0D5433" stroke-width="1.5"/>
<path d="M15.0918 35.398C15.0918 37.7326 16.9842 39.625 19.3189 39.625H20.7279V31.1709H19.3189C16.9842 31.1709 15.0918 33.0632 15.0918 35.398Z" fill="#D1AA81"/>
<path d="M43.2715 31.1709V39.625H44.6805C47.0152 39.625 48.9075 37.7326 48.9075 35.398C48.9075 33.0632 47.0152 31.1709 44.6805 31.1709H43.2715Z" fill="#D1AA81"/>
<path d="M45.9229 25.8115H18.0742V36.6415C18.0742 44.3317 24.3085 50.5658 31.9986 50.5658C39.6888 50.5658 45.9229 44.3317 45.9229 36.6415V25.8115Z" fill="#F2C8A0"/>
<path d="M25.8101 16.5283H22.7159C19.2983 16.5283 16.5273 19.2993 16.5273 22.717V28.1319C16.5273 28.559 16.8739 28.9055 17.3009 28.9055H21.1688C24.5864 28.9055 27.3573 26.1346 27.3573 22.717V18.0755C27.3573 17.2207 26.6649 16.5283 25.8101 16.5283Z" fill="url(#paint0_linear_2932_13372)"/>
<path d="M38.1883 13.4346H28.9053C25.4877 13.4346 22.7168 16.2055 22.7168 19.6231C22.7168 24.7496 26.8732 28.906 31.9996 28.906H46.6976C47.1245 28.906 47.4712 28.5595 47.4712 28.1324V22.7174C47.4712 17.591 43.3147 13.4346 38.1883 13.4346Z" fill="#2B658B"/>
<path d="M25.2031 33.2117V33.1062C25.2031 32.3169 25.8515 31.6816 26.6407 31.6976C27.4077 31.7132 28.0211 32.3393 28.0211 33.1062V33.3261" stroke="black" stroke-width="1.24324" stroke-linecap="round"/>
<path d="M36.1445 33.2117V33.1062C36.1445 32.3169 36.7929 31.6816 37.5821 31.6976C38.3489 31.7132 38.9625 32.3393 38.9625 33.1062V33.3261" stroke="black" stroke-width="1.24324" stroke-linecap="round"/>
<path d="M31.9957 44.3771C34.7775 44.3771 37.1284 42.5445 37.9089 40.0203C38.1905 39.109 37.4827 38.1885 36.5297 38.1885H27.4633C26.5011 38.1885 25.8009 39.123 26.0888 40.0413C26.894 42.6134 29.2899 44.3771 31.9957 44.3771Z" fill="#ED0C6E"/>
<path opacity="0.2" d="M32.658 44.3385C32.4414 44.3617 32.2171 44.3771 31.9927 44.3771C29.293 44.3771 26.8948 42.6133 26.0903 40.0373C25.8042 39.1245 26.5003 38.1885 27.4674 38.1885H28.7979C27.8387 38.1885 27.1347 39.1245 27.421 40.0373C28.1635 42.3967 30.2367 44.0754 32.658 44.3385Z" fill="black"/>
</g>
</g>
<defs>
<linearGradient id="paint0_linear_2932_13372" x1="19.9655" y1="28.9055" x2="19.9948" y2="16.5282" gradientUnits="userSpaceOnUse">
<stop stop-color="#064466"/>
<stop offset="1" stop-color="#2B658B"/>
</linearGradient>
<clipPath id="clip0_2932_13372">
<rect width="64" height="64" fill="white"/>
</clipPath>
</defs>
</svg>
