<svg width="64" height="64" viewBox="0 0 64 64" fill="none" xmlns="http://www.w3.org/2000/svg">
<g clip-path="url(#clip0_2932_2365)">
<path d="M59.2365 18.477V32.8712C59.2368 34.0978 58.9265 35.3045 58.3346 36.3788C57.7428 37.4531 56.8885 38.3601 55.8515 39.0152L48.7264 43.5125C47.7371 44.1371 46.5988 44.4856 45.4294 44.5218C44.26 44.5581 43.1022 44.2807 42.0762 43.7186L32.7104 38.5871C32.6522 38.5553 32.5882 38.5356 32.5222 38.5291C32.4562 38.5227 32.3895 38.5297 32.3263 38.5496C32.2631 38.5696 32.2045 38.6021 32.1541 38.6453C32.1038 38.6885 32.0627 38.7414 32.0333 38.8008L29.0138 44.9064C28.9577 45.0199 28.9475 45.1506 28.9855 45.2714C29.0234 45.3922 29.1064 45.4937 29.2173 45.5547L38.6797 50.7733C40.7339 51.9061 43.0545 52.467 45.3993 52.3974C47.7442 52.3278 50.0274 51.6304 52.0109 50.3778L57.7562 46.7496C59.5704 45.6038 61.0651 44.0173 62.101 42.1381C63.1368 40.2588 63.68 38.1479 63.68 36.0021V17.6117C63.68 16.0162 63.0462 14.486 61.918 13.3577C60.7898 12.2295 59.2596 11.5957 57.664 11.5957H47.7165C47.6569 11.5956 47.5978 11.6073 47.5427 11.6301C47.4877 11.6528 47.4376 11.6863 47.3954 11.7284C47.3533 11.7706 47.3199 11.8206 47.2971 11.8757C47.2743 11.9308 47.2626 11.9899 47.2627 12.0495V17.1138C47.2626 17.1734 47.2743 17.2325 47.2971 17.2876C47.3199 17.3428 47.3533 17.3929 47.3954 17.4351C47.4376 17.4773 47.4876 17.5107 47.5427 17.5336C47.5978 17.5564 47.6569 17.5682 47.7165 17.5682H58.3283C58.4477 17.5681 58.5659 17.5916 58.6761 17.6372C58.7864 17.6829 58.8866 17.7498 58.9709 17.8342C59.0553 17.9186 59.1222 18.0189 59.1677 18.1291C59.2133 18.2394 59.2367 18.3576 59.2365 18.477Z" fill="url(#paint0_linear_2932_2365)"/>
<path d="M31.7965 36.2653C29.2685 38.5322 27.3805 42.1981 26.6727 45.8493C26.4391 47.0576 25.6967 47.2163 25.0049 46.1987L18.1479 36.1155C18.0537 35.9771 17.999 35.8156 17.9897 35.6484C17.9804 35.4812 18.0168 35.3146 18.0951 35.1665C18.1733 35.0185 18.2904 34.8945 18.4338 34.808C18.5772 34.7215 18.7414 34.6757 18.9089 34.6755L31.1783 34.6602C32.4993 34.6582 32.7802 35.3834 31.7965 36.2653Z" fill="url(#paint1_linear_2932_2365)"/>
<path d="M41.1178 29.219H39.2849C38.3598 29.219 37.4726 28.8515 36.8185 28.1974C36.1644 27.5432 35.7969 26.6561 35.7969 25.731V23.2823C35.7969 23.2041 35.828 23.1291 35.8833 23.0737C35.9386 23.0184 36.0137 22.9873 36.0919 22.9873H38.0977C38.1364 22.9872 38.1748 22.9948 38.2107 23.0096C38.2465 23.0244 38.2791 23.0461 38.3065 23.0735C38.3339 23.1009 38.3556 23.1335 38.3704 23.1693C38.3852 23.2052 38.3928 23.2436 38.3927 23.2823V26.6244H42.01V23.2836C42.01 23.2054 42.0411 23.1303 42.0964 23.075C42.1517 23.0197 42.2268 22.9886 42.305 22.9886H44.3108C44.3496 22.9885 44.388 22.9961 44.4238 23.0109C44.4596 23.0257 44.4922 23.0474 44.5196 23.0748C44.547 23.1022 44.5688 23.1348 44.5835 23.1706C44.5983 23.2065 44.6059 23.2449 44.6058 23.2836V25.7284C44.6062 26.1867 44.5162 26.6405 44.3411 27.064C44.1659 27.4875 43.9091 27.8723 43.5851 28.1965C43.2612 28.5206 42.8766 28.7778 42.4532 28.9532C42.0299 29.1287 41.5761 29.219 41.1178 29.219Z" fill="#0F3F93"/>
<path d="M34.9049 29.219H28.5753C28.117 29.2189 27.6633 29.1285 27.2401 28.953C26.8168 28.7776 26.4322 28.5204 26.1084 28.1962C25.7845 27.8721 25.5277 27.4873 25.3526 27.0639C25.1775 26.6404 25.0876 26.1866 25.0879 25.7284V23.2823C25.0879 23.2041 25.119 23.1291 25.1743 23.0737C25.2296 23.0184 25.3047 22.9873 25.3829 22.9873H27.3887C27.4275 22.9872 27.4659 22.9948 27.5017 23.0096C27.5375 23.0244 27.5701 23.0461 27.5975 23.0735C27.6249 23.1009 27.6466 23.1335 27.6614 23.1693C27.6762 23.2052 27.6838 23.2436 27.6837 23.2823V26.6244H35.797V23.2836C35.797 23.2054 35.8281 23.1303 35.8834 23.075C35.9388 23.0197 36.0138 22.9886 36.0921 22.9886H38.0978C38.1366 22.9885 38.175 22.9961 38.2108 23.0109C38.2467 23.0257 38.2792 23.0474 38.3066 23.0748C38.334 23.1022 38.3558 23.1348 38.3706 23.1706C38.3854 23.2065 38.3929 23.2449 38.3929 23.2836V25.7284C38.3932 26.1867 38.3032 26.6405 38.1281 27.064C37.9529 27.4875 37.6961 27.8723 37.3721 28.1965C37.0482 28.5206 36.6636 28.7778 36.2402 28.9532C35.8169 29.1287 35.3631 29.219 34.9049 29.219Z" fill="#0F3F93"/>
<path d="M51.4651 20.3906H47.4613C47.4225 20.3905 47.3841 20.3981 47.3483 20.4129C47.3124 20.4277 47.2799 20.4494 47.2525 20.4769C47.2251 20.5043 47.2033 20.5368 47.1885 20.5727C47.1737 20.6085 47.1662 20.6469 47.1662 20.6857V22.6914C47.1662 22.7302 47.1737 22.7686 47.1885 22.8044C47.2033 22.8403 47.2251 22.8728 47.2525 22.9002C47.2799 22.9277 47.3124 22.9494 47.3483 22.9642C47.3841 22.979 47.4225 22.9866 47.4613 22.9865H51.4645C51.7021 22.9865 51.93 23.0809 52.0981 23.2489C52.2661 23.4169 52.3605 23.6448 52.3605 23.8825V25.7276C52.3605 25.9652 52.2661 26.1931 52.0981 26.3612C51.93 26.5292 51.7021 26.6236 51.4645 26.6236H45.4914C45.2569 26.6231 45.0322 26.5295 44.8667 26.3634C44.7012 26.1973 44.6085 25.9723 44.6088 25.7378V23.2815C44.6089 23.2427 44.6013 23.2043 44.5865 23.1685C44.5717 23.1327 44.55 23.1001 44.5226 23.0727C44.4952 23.0453 44.4626 23.0235 44.4268 23.0088C44.3909 22.994 44.3525 22.9864 44.3138 22.9865H42.3048C42.266 22.9864 42.2276 22.994 42.1918 23.0088C42.156 23.0235 42.1234 23.0453 42.096 23.0727C42.0686 23.1001 42.0468 23.1327 42.0321 23.1685C42.0173 23.2043 42.0097 23.2427 42.0098 23.2815V25.1106C42.0099 26.2 42.4427 27.2446 43.213 28.0149C43.9833 28.7852 45.028 29.218 46.1173 29.2181H51.4638C51.9219 29.2181 52.3755 29.1279 52.7986 28.9526C53.2218 28.7774 53.6063 28.5204 53.9302 28.1965C54.2541 27.8726 54.511 27.4881 54.6863 27.0649C54.8616 26.6418 54.9518 26.1882 54.9518 25.7301V23.8793C54.952 22.9543 54.5848 22.0671 53.9309 21.4129C53.277 20.7587 52.3901 20.391 51.4651 20.3906Z" fill="#0F3F93"/>
<path d="M38.1779 30.4287H40.2009V32.7468H38.1779C38.1391 32.7468 38.1007 32.7392 38.0649 32.7243C38.0291 32.7095 37.9966 32.6878 37.9692 32.6604C37.9418 32.633 37.9201 32.6005 37.9053 32.5647C37.8904 32.5289 37.8828 32.4905 37.8828 32.4517V30.7237C37.8828 30.6455 37.9139 30.5705 37.9692 30.5151C38.0246 30.4598 38.0996 30.4287 38.1779 30.4287Z" fill="#0F3F93"/>
<path d="M39.5664 30.4287H42.2237C42.3019 30.4287 42.377 30.4598 42.4323 30.5151C42.4876 30.5705 42.5187 30.6455 42.5187 30.7237V32.4517C42.5187 32.53 42.4876 32.605 42.4323 32.6604C42.377 32.7157 42.3019 32.7468 42.2237 32.7468H39.5664V30.4287Z" fill="#0F3F93"/>
<path d="M48.5894 30.4287H46.8614C46.6985 30.4287 46.5664 30.5608 46.5664 30.7237V32.4517C46.5664 32.6147 46.6985 32.7468 46.8614 32.7468H48.5894C48.7524 32.7468 48.8845 32.6147 48.8845 32.4517V30.7237C48.8845 30.5608 48.7524 30.4287 48.5894 30.4287Z" fill="#0F3F93"/>
<path d="M32.6051 30.4287H30.8771C30.7141 30.4287 30.582 30.5608 30.582 30.7237V32.4517C30.582 32.6147 30.7141 32.7468 30.8771 32.7468H32.6051C32.768 32.7468 32.9001 32.6147 32.9001 32.4517V30.7237C32.9001 30.5608 32.768 30.4287 32.6051 30.4287Z" fill="#0F3F93"/>
<path d="M17.898 30.4287H16.17C16.0071 30.4287 15.875 30.5608 15.875 30.7237V32.4517C15.875 32.6147 16.0071 32.7468 16.17 32.7468H17.898C18.061 32.7468 18.1931 32.6147 18.1931 32.4517V30.7237C18.1931 30.5608 18.061 30.4287 17.898 30.4287Z" fill="#0F3F93"/>
<path d="M3.21042 20.6719H5.23346V22.99H2.91602V20.9637C2.91686 20.8861 2.94822 20.812 3.00333 20.7574C3.05843 20.7028 3.13283 20.672 3.21042 20.6719Z" fill="#0F3F93"/>
<path d="M5.23242 20.6719H7.25546C7.33371 20.6719 7.40876 20.703 7.46409 20.7583C7.51942 20.8136 7.5505 20.8887 7.5505 20.9669V22.6949C7.5505 22.7732 7.51942 22.8482 7.46409 22.9035C7.40876 22.9589 7.33371 22.99 7.25546 22.99H5.23242V20.6719Z" fill="#0F3F93"/>
<path d="M10.1379 29.219H3.80831C3.35005 29.219 2.89627 29.1287 2.47292 28.9532C2.04957 28.7778 1.66494 28.5206 1.34102 28.1965C1.0171 27.8723 0.760224 27.4875 0.585086 27.064C0.409949 26.6405 0.319977 26.1867 0.320313 25.7284V23.2823C0.320229 23.2436 0.327803 23.2052 0.3426 23.1693C0.357397 23.1335 0.379127 23.1009 0.406541 23.0735C0.433954 23.0461 0.466513 23.0244 0.502347 23.0096C0.538181 22.9948 0.576585 22.9872 0.615353 22.9873H2.91935V26.6244H11.0301V23.2836C11.03 23.2449 11.0376 23.2065 11.0524 23.1706C11.0672 23.1348 11.0889 23.1022 11.1163 23.0748C11.1437 23.0474 11.1763 23.0257 11.2121 23.0109C11.2479 22.9961 11.2863 22.9885 11.3251 22.9886H13.3309C13.4091 22.9886 13.4842 23.0197 13.5395 23.075C13.5948 23.1303 13.6259 23.2054 13.6259 23.2836V25.7284C13.6262 26.1867 13.5363 26.6405 13.3611 27.064C13.186 27.4875 12.9291 27.8723 12.6052 28.1965C12.2813 28.5206 11.8967 28.7778 11.4733 28.9532C11.05 29.1287 10.5962 29.219 10.1379 29.219Z" fill="#0F3F93"/>
<path d="M20.0361 20.3906H16.9314C16.8927 20.3905 16.8543 20.3981 16.8184 20.4129C16.7826 20.4277 16.75 20.4494 16.7226 20.4769C16.6952 20.5043 16.6735 20.5368 16.6587 20.5727C16.6439 20.6085 16.6363 20.6469 16.6364 20.6857V22.6914C16.6363 22.7302 16.6439 22.7686 16.6587 22.8044C16.6735 22.8403 16.6952 22.8728 16.7226 22.9002C16.75 22.9277 16.7826 22.9494 16.8184 22.9642C16.8543 22.979 16.8927 22.9866 16.9314 22.9865H20.0354C20.2725 22.9873 20.4996 23.0821 20.6669 23.25C20.8343 23.418 20.9282 23.6454 20.9282 23.8825V25.7276C20.9282 25.9647 20.8343 26.1921 20.6669 26.36C20.4996 26.528 20.2725 26.6227 20.0354 26.6236H14.5103C14.2757 26.6236 14.0508 26.5304 13.8849 26.3645C13.719 26.1987 13.6258 25.9737 13.6258 25.7391V23.2815C13.6258 23.2033 13.5948 23.1282 13.5394 23.0729C13.4841 23.0176 13.4091 22.9865 13.3308 22.9865H11.3282C11.2895 22.9864 11.2511 22.994 11.2152 23.0088C11.1794 23.0236 11.1468 23.0453 11.1194 23.0727C11.092 23.1001 11.0703 23.1327 11.0555 23.1685C11.0407 23.2043 11.0331 23.2427 11.0332 23.2815V25.1106C11.0332 26.2 11.466 27.2448 12.2363 28.0151C13.0066 28.7854 14.0513 29.2181 15.1407 29.2181H20.0393C20.4973 29.2181 20.9509 29.1279 21.3741 28.9526C21.7973 28.7774 22.1818 28.5204 22.5057 28.1965C22.8296 27.8726 23.0865 27.4881 23.2618 27.0649C23.4371 26.6418 23.5273 26.1882 23.5273 25.7301V23.8786C23.5273 23.4203 23.437 22.9665 23.2615 22.5431C23.086 22.1197 22.8288 21.735 22.5045 21.4111C22.1803 21.0872 21.7954 20.8303 21.3719 20.6552C20.9483 20.4801 20.4944 20.3902 20.0361 20.3906Z" fill="#0F3F93"/>
</g>
<defs>
<linearGradient id="paint0_linear_2932_2365" x1="40.297" y1="51.9515" x2="62.5165" y2="13.4664" gradientUnits="userSpaceOnUse">
<stop offset="0.08" stop-color="#2D8C00"/>
<stop offset="0.16" stop-color="#389700"/>
<stop offset="0.51" stop-color="#66C500"/>
<stop offset="0.9" stop-color="#B4DD00"/>
</linearGradient>
<linearGradient id="paint1_linear_2932_2365" x1="18.3349" y1="34.7484" x2="29.5069" y2="41.1988" gradientUnits="userSpaceOnUse">
<stop offset="0.27" stop-color="#FFE400"/>
<stop offset="0.65" stop-color="#FFCC00"/>
</linearGradient>
<clipPath id="clip0_2932_2365">
<rect width="64" height="64" fill="white"/>
</clipPath>
</defs>
</svg>
