<svg width="56" height="56" viewBox="0 0 56 56" fill="none" xmlns="http://www.w3.org/2000/svg">
<path d="M40.4748 36.2471C40.4734 36.745 40.299 37.2222 39.9896 37.5743C39.6801 37.9264 39.2609 38.1248 38.8233 38.1263H36V41H38.8233C39.931 41 40.9933 40.4992 41.7767 39.6079C42.56 38.7165 43 37.5076 43 36.2471V30H40.4748V36.2471Z" fill="#202020"/>
<path d="M46.5355 26H35.4645C34.5457 26 33.6644 26.3651 33.0147 27.015C32.365 27.6648 32 28.5463 32 29.4654V40.5346C32 40.9896 32.0897 41.4403 32.2638 41.8607C32.4379 42.2811 32.6931 42.6632 33.0147 42.985C33.3365 43.3069 33.7184 43.562 34.1386 43.7362C34.559 43.9104 35.0095 44 35.4645 44H46.5355C47.4543 44 48.3356 43.6349 48.9853 42.985C49.635 42.3352 50 41.4537 50 40.5346V29.4654C50 28.5463 49.635 27.6648 48.9853 27.015C48.3356 26.3651 47.4543 26 46.5355 26ZM47.3103 40.5292C47.3103 40.7347 47.2286 40.9318 47.0833 41.0771C46.938 41.2224 46.741 41.3041 46.5355 41.3041H35.4645C35.259 41.3041 35.062 41.2224 34.9167 41.0771C34.7714 40.9318 34.6897 40.7347 34.6897 40.5292V29.4654C34.6897 29.2599 34.7714 29.0629 34.9167 28.9175C35.062 28.7722 35.259 28.6906 35.4645 28.6906H46.5355C46.741 28.6906 46.938 28.7722 47.0833 28.9175C47.2286 29.0629 47.3103 29.2599 47.3103 29.4654V40.5292Z" fill="#202020"/>
<path d="M26.2738 31H14.7262C13.7379 31 12.7902 31.3926 12.0914 32.0914C11.3927 32.7903 11 33.7379 11 34.7262V46.2739C11 47.2621 11.3927 48.2099 12.0914 48.9086C12.7902 49.6074 13.7379 50 14.7262 50H26.2738C27.2621 50 28.2099 49.6074 28.9086 48.9086C29.6074 48.2099 30 47.2621 30 46.2739V34.7262C30.0007 34.2366 29.9048 33.7518 29.7178 33.2994C29.5309 32.8469 29.2564 32.4359 28.9102 32.0897C28.5641 31.7436 28.153 31.4691 27.7006 31.2821C27.2482 31.0952 26.7634 30.9993 26.2738 31ZM27.16 46.2739C27.16 46.3902 27.137 46.5055 27.0925 46.6129C27.0479 46.7204 26.9827 46.8182 26.9005 46.9004C26.8181 46.9827 26.7204 47.048 26.6129 47.0925C26.5054 47.137 26.3902 47.16 26.2738 47.16H14.7262C14.6098 47.16 14.4946 47.137 14.3871 47.0925C14.2796 47.048 14.1819 46.9827 14.0997 46.9004C14.0173 46.8182 13.9521 46.7204 13.9075 46.6129C13.863 46.5055 13.8401 46.3902 13.8401 46.2739V34.7262C13.8401 34.4912 13.9334 34.2658 14.0997 34.0996C14.2658 33.9335 14.4912 33.8401 14.7262 33.8401H26.2738C26.5088 33.8401 26.7342 33.9335 26.9005 34.0996C27.0666 34.2658 27.16 34.4912 27.16 34.7262V46.2739Z" fill="#202020"/>
<path d="M30 25.7843V18.5348H27.1858V25.7843C27.1865 25.9686 27.1508 26.1511 27.0806 26.3215C27.0103 26.4919 26.9072 26.6466 26.7768 26.7769C26.6466 26.9073 26.4918 27.0104 26.3215 27.0806C26.151 27.1508 25.9685 27.1865 25.7842 27.1857H10.2158C9.84405 27.1857 9.48758 27.0381 9.22475 26.7753C8.96191 26.5125 8.81426 26.1559 8.81426 25.7843V10.2158C8.81574 9.84452 8.96387 9.48891 9.22638 9.22639C9.48889 8.96389 9.84451 8.81575 10.2158 8.81426H25.7842C26.1559 8.81426 26.5125 8.96192 26.7752 9.22475C27.0381 9.48759 27.1858 9.84406 27.1858 10.2158V12.9457H30V10.2158C30 9.66214 29.891 9.11394 29.679 8.60246C29.4672 8.09099 29.1566 7.62624 28.7653 7.23477C28.3738 6.84331 27.909 6.53276 27.3975 6.32091C26.886 6.10905 26.3379 6 25.7842 6H10.2158C9.09766 6 8.02538 6.44416 7.23478 7.23477C6.44417 8.02538 6 9.09768 6 10.2158V25.7843C6 26.9023 6.44417 27.9746 7.23478 28.7652C8.02538 29.5558 9.09766 30 10.2158 30H25.7842C26.9023 30 27.9746 29.5558 28.7653 28.7652C29.5558 27.9746 30 26.9023 30 25.7843Z" fill="#202020"/>
<path d="M17 18.8695V26H19.7607V18.8695C19.7621 18.3593 19.9528 17.8704 20.2911 17.5097C20.6293 17.1489 21.0877 16.9456 21.5661 16.944H38.4284C38.9077 16.944 39.3674 17.1468 39.7069 17.5076C40.0464 17.8686 40.2379 18.3582 40.2394 18.8695V24.6045H43V18.8695C43 17.5781 42.5189 16.3394 41.6626 15.4263C40.8062 14.5131 39.6449 14 38.4339 14H21.5661C20.3551 14 19.1937 14.5131 18.3374 15.4263C17.4811 16.3394 17 17.5781 17 18.8695Z" fill="#202020"/>
<path d="M19.924 35.5652V35H17V35.5652C17 37.0066 17.5095 38.389 18.4165 39.4082C19.3234 40.4275 20.5536 41 21.8363 41H26V37.7141H21.8363C21.3296 37.7124 20.844 37.4854 20.4858 37.0828C20.1275 36.6802 19.9255 36.1345 19.924 35.5652Z" fill="#202020"/>
</svg>
