<svg width="64" height="64" viewBox="0 0 64 64" fill="none" xmlns="http://www.w3.org/2000/svg">
<path d="M41.8027 3.19922H22.1958C11.7043 3.19922 3.19922 11.7043 3.19922 22.1958V41.8027C3.19922 52.2942 11.7043 60.7992 22.1958 60.7992H41.8027C52.2942 60.7992 60.7992 52.2942 60.7992 41.8027V22.1958C60.7992 11.7043 52.2942 3.19922 41.8027 3.19922Z" fill="url(#paint0_linear_2932_13575)"/>
<path d="M48.2539 39.0658C43.9292 41.1318 38.1571 42.2689 31.9991 42.2689C25.8412 42.2689 20.0697 41.1318 15.7443 39.0658C11.715 37.1409 9.4043 34.5651 9.4043 31.9987C9.4043 29.4323 11.7157 26.8565 15.7443 24.9316C20.0684 22.8657 25.8405 21.7285 31.9991 21.7285C38.1578 21.7285 43.9279 22.8657 48.2539 24.9316C52.2846 26.8565 54.594 29.4323 54.594 31.9987C54.594 34.5651 52.2826 37.1409 48.2539 39.0658Z" fill="black"/>
<path d="M20.5852 32.5426C20.971 32.8996 21.5475 33.0781 22.3146 33.0781C22.6873 33.0809 23.0582 33.0256 23.414 32.9142C23.7372 32.8136 24.0404 32.6573 24.3097 32.4522C24.5611 32.2581 24.7668 32.011 24.912 31.7285C25.0609 31.431 25.1361 31.102 25.1312 30.7694V30.5731C25.2184 30.6715 25.3304 30.7446 25.4556 30.7849C25.604 30.8296 25.7586 30.8508 25.9136 30.8476H26.07C26.4037 30.8476 26.675 30.7993 26.8841 30.7026C27.0935 30.6051 27.2722 30.4521 27.4008 30.2601C27.514 30.4314 27.662 30.5768 27.8351 30.6871C28.0047 30.7937 28.238 30.8472 28.5352 30.8476C28.7325 30.8475 28.9283 30.8145 29.1146 30.7498C29.3021 30.6846 29.4741 30.5344 29.6306 30.2993C29.6952 30.3947 29.7744 30.4793 29.8653 30.5502C30.0366 30.6803 30.2344 30.771 30.4447 30.8159C30.5373 30.8362 30.6318 30.8468 30.7266 30.8476C30.9434 30.853 31.1566 30.7913 31.337 30.6709C31.4986 30.5632 31.6364 30.4234 31.7417 30.2601C31.8033 30.378 31.8885 30.482 31.9919 30.5657C32.0876 30.6419 32.1945 30.7026 32.3089 30.7458C32.4201 30.787 32.5358 30.8147 32.6536 30.828C32.7656 30.8406 32.8781 30.8471 32.9908 30.8476H33.1473C33.4011 30.849 33.6538 30.8147 33.898 30.7458C34.127 30.681 34.3394 30.5676 34.5205 30.4132C34.7088 30.2476 34.8549 30.0395 34.9468 29.8062C35.0587 29.5144 35.1119 29.2034 35.1033 28.891C35.1033 28.8235 35.1033 28.7264 35.0918 28.6016C35.0803 28.4768 35.0722 28.3379 35.0567 28.1868C35.0412 28.0357 35.0237 27.8772 35.0055 27.7147C34.9873 27.5521 34.9677 27.395 34.9468 27.2486L33.7732 27.4442C33.8303 27.9136 33.8708 28.2734 33.8946 28.5234C33.9184 28.7734 33.9301 28.9483 33.9297 29.0481C33.929 29.0813 33.9195 29.1136 33.902 29.1419C33.8748 29.1807 33.8369 29.2107 33.7928 29.2282C33.7201 29.2601 33.6437 29.2827 33.5655 29.2956C33.4402 29.3166 33.3133 29.3258 33.1864 29.3233H32.9908C32.7354 29.3233 32.554 29.2783 32.4465 29.1884C32.3399 29.0974 32.286 28.9287 32.286 28.6839V27.8347H31.2358C31.2358 28.1693 31.228 28.4341 31.2122 28.6293C31.2045 28.7802 31.1796 28.9298 31.138 29.0751C31.1194 29.1584 31.0688 29.2311 30.9971 29.2774C30.9251 29.3116 30.846 29.3278 30.7664 29.3246C30.6683 29.3249 30.5708 29.3104 30.4771 29.2815C30.3697 29.2441 30.2747 29.1778 30.2025 29.0899C30.2079 29.0216 30.212 28.9406 30.2147 28.8471C30.2174 28.7536 30.2187 28.6571 30.2187 28.5578V27.9939H29.1618C29.1644 28.2122 29.154 28.4304 29.1308 28.6475C29.1174 28.7867 29.0831 28.9232 29.029 29.0522C28.9936 29.1403 28.9303 29.2144 28.8489 29.2633C28.7638 29.3051 28.6698 29.3252 28.575 29.322C28.4716 29.3214 28.3689 29.3055 28.2702 29.2747C28.2143 29.2559 28.1626 29.2262 28.1183 29.1873C28.074 29.1484 28.0378 29.1011 28.0119 29.0481C28.0166 28.9807 28.0206 28.9018 28.0233 28.8134C28.026 28.725 28.0274 28.632 28.0274 28.5355V27.9912H26.9705C26.9736 28.2166 26.9618 28.4419 26.9354 28.6657C26.9231 28.8094 26.8769 28.9481 26.8005 29.0704C26.7347 29.1669 26.6382 29.2382 26.5267 29.2727C26.3789 29.3134 26.2259 29.3318 26.0727 29.3273H25.9163C25.8082 29.3288 25.7004 29.317 25.5952 29.2923C25.5045 29.2703 25.4202 29.2273 25.349 29.1668C25.2739 29.0994 25.2185 29.013 25.1885 28.9166C25.1484 28.7835 25.13 28.6448 25.1339 28.5058V25.0957L23.9198 25.2137L24.0372 30.8483C24.0315 30.9396 23.9927 31.0257 23.9279 31.0904C23.8382 31.1862 23.7305 31.2634 23.6109 31.3177C23.4473 31.3937 23.2752 31.45 23.0983 31.4857C22.8667 31.5332 22.6306 31.5558 22.3942 31.5531C22.2032 31.557 22.0125 31.5359 21.8269 31.4904C21.6912 31.4566 21.5632 31.3971 21.4499 31.315C21.359 31.2488 21.2873 31.1597 21.2422 31.0567C21.1994 30.9523 21.178 30.8404 21.1794 30.7276C21.1794 30.6601 21.1794 30.5778 21.1875 30.4814C21.1956 30.3849 21.2057 30.2703 21.2267 30.1367C21.2476 30.0032 21.2759 29.8474 21.313 29.6646C21.3501 29.4818 21.3959 29.2774 21.454 29.0427L20.5144 28.7689C20.3343 29.2219 20.1954 29.6904 20.0996 30.1684C20.0463 30.4434 20.0149 30.7221 20.0059 31.0021C20.0059 31.6716 20.199 32.1851 20.5852 32.5426Z" fill="#FFCC00"/>
<path d="M34.2883 26.7021L34.9925 25.998V25.8806L34.2883 25.1758H34.1709L33.4668 25.8806V25.998L34.1709 26.7021H34.2883Z" fill="#FFCC00"/>
<path d="M36.91 30.8085V25.0957L35.6973 25.2131L35.8146 30.8861L36.91 30.8085Z" fill="#FFCC00"/>
<path d="M36.5981 32.9223C37.3908 32.9012 38.0156 32.6939 38.4724 32.3005C38.9293 31.907 39.186 31.3292 39.2427 30.5671C39.3302 30.667 39.4422 30.7426 39.5678 30.7863C39.7082 30.8307 39.8549 30.8519 40.0021 30.849H40.1613C40.4153 30.8504 40.6682 30.8161 40.9127 30.7471C41.1414 30.6823 41.3535 30.5689 41.5345 30.4146C41.723 30.2492 41.8691 30.041 41.9608 29.8076C42.0727 29.5158 42.1259 29.2048 42.1173 28.8923C42.1173 28.8244 42.1132 28.728 42.1051 28.603C42.0977 28.4775 42.0856 28.3393 42.0701 28.1882C42.0545 28.0371 42.0377 27.8786 42.0195 27.7161C42.0013 27.5535 41.981 27.3964 41.9601 27.25L40.7865 27.4456C40.8441 27.915 40.8846 28.2747 40.9079 28.5248C40.9313 28.7748 40.943 28.9497 40.943 29.0495C40.9423 29.0826 40.933 29.1149 40.916 29.1432C40.8884 29.182 40.8503 29.2119 40.8061 29.2296C40.7337 29.2615 40.6575 29.2841 40.5795 29.297C40.454 29.3179 40.3269 29.3272 40.1997 29.3247H40.0041C39.8595 29.3283 39.7149 29.3138 39.5738 29.2815C39.4611 29.251 39.3627 29.1818 39.2959 29.0859C39.2043 28.9522 39.1359 28.804 39.0936 28.6475C39.0365 28.4573 38.974 28.2003 38.9061 27.8766L37.7332 28.1882C37.8532 28.8177 37.9432 29.3406 38.003 29.757C38.048 30.0407 38.0766 30.3267 38.0886 30.6136C38.0744 30.702 38.041 30.7863 37.9908 30.8605C37.9157 30.9662 37.8198 31.0555 37.7089 31.1228C37.5402 31.2284 37.3606 31.3157 37.1734 31.3832C36.8966 31.4856 36.6128 31.5681 36.3242 31.63L36.5981 32.9223Z" fill="#FFCC00"/>
<path d="M41.3631 31.293L40.6981 31.958L40.0331 31.293H39.9157L39.25 31.958V32.0754L39.9157 32.7404H40.0331L40.6981 32.0754L41.3631 32.7404H41.4805L42.1455 32.0754V31.958L41.4805 31.293H41.3631Z" fill="#FFCC00"/>
<path d="M43.9139 30.8085V25.0957L42.7012 25.2131L42.8185 30.8861L43.9139 30.8085Z" fill="#FFCC00"/>
<path d="M21.582 34.1417V34.259L22.2862 34.9638H22.4035L23.1077 34.259V34.1417L22.4035 33.4375H22.2862L21.582 34.1417Z" fill="#FFCC00"/>
<path d="M43.9288 34.2064C43.8689 33.9818 43.7666 33.7707 43.6273 33.5846C43.4979 33.4136 43.3305 33.275 43.1383 33.1799C42.9279 33.0796 42.6969 33.0301 42.4638 33.0356C42.2847 33.0319 42.1066 33.0638 41.9398 33.1293C41.7857 33.1939 41.645 33.2868 41.525 33.4031C41.3887 33.5364 41.2678 33.6846 41.1648 33.8449C41.0397 34.0384 40.9249 34.2383 40.8208 34.4439C40.7552 34.5766 40.671 34.6992 40.5706 34.8081C40.4892 34.8932 40.3955 34.9657 40.2927 35.0232C40.1963 35.075 40.0915 35.1093 39.9831 35.1244C39.8715 35.1405 39.7587 35.1484 39.6459 35.148H25.7187C25.6064 35.1491 25.4948 35.1306 25.3889 35.0934C25.2874 35.0535 25.201 34.9827 25.142 34.891C25.0565 34.7554 24.9919 34.6076 24.9505 34.4526C24.8808 34.2042 24.8246 33.9523 24.7819 33.6979L23.6056 34.0142C23.642 34.2179 23.6811 34.4526 23.7229 34.7184C23.7648 34.9841 23.803 35.2451 23.8376 35.5014C23.874 35.76 23.9028 35.9947 23.9239 36.2056C23.9451 36.4165 23.9554 36.5718 23.955 36.6716C23.9503 36.7616 23.9146 36.8472 23.8538 36.9138C23.7689 37.01 23.6648 37.0874 23.5482 37.1411C23.3888 37.2169 23.2207 37.2733 23.0478 37.309C22.8187 37.3568 22.5851 37.3794 22.3511 37.3765C22.1601 37.3804 21.9694 37.3593 21.7838 37.3137C21.6488 37.2809 21.5213 37.2225 21.4081 37.1417C21.3171 37.0757 21.2454 36.9865 21.2004 36.8834C21.1576 36.7793 21.1363 36.6676 21.1377 36.555C21.1377 36.4875 21.1377 36.4052 21.1458 36.3081C21.1539 36.211 21.164 36.097 21.1849 35.9641C21.2058 35.8312 21.2341 35.6741 21.2712 35.492C21.3083 35.3099 21.3542 35.1042 21.4122 34.8694L20.4727 34.5956C20.2936 35.0486 20.1556 35.5168 20.0605 35.9945C20.0073 36.2694 19.9759 36.5482 19.9668 36.8281C19.9668 37.4958 20.1599 38.0084 20.5462 38.3659C20.9324 38.7234 21.5089 38.9033 22.2755 38.9055C22.6483 38.908 23.0192 38.8525 23.3749 38.7409C23.6985 38.6408 24.0019 38.4844 24.2713 38.2789C24.5229 38.0849 24.7285 37.8378 24.8736 37.5552C25.0225 37.2579 25.0977 36.9292 25.0928 36.5968V36.5293C25.0925 36.5006 25.0898 36.4719 25.0847 36.4437C25.1471 36.5158 25.2266 36.571 25.316 36.6042C25.4443 36.6568 25.5821 36.6821 25.7207 36.6784H39.6479C39.8939 36.6757 40.1356 36.6139 40.3527 36.4983C40.5972 36.3692 40.8005 36.174 40.9395 35.9351C40.9971 36.1487 41.168 36.3326 41.4521 36.4868C41.7363 36.6411 42.1525 36.7162 42.7006 36.7121C42.8697 36.7117 43.0366 36.6742 43.1896 36.6022C43.354 36.5252 43.4995 36.4131 43.6158 36.2737C43.7491 36.1142 43.8514 35.9312 43.9173 35.7341C43.9968 35.495 44.0351 35.2441 44.0307 34.9922C44.0333 34.7268 43.9991 34.4624 43.9288 34.2064ZM42.3519 35.1885C42.2276 35.1771 42.1054 35.1494 41.9883 35.1062C41.9183 35.0831 41.856 35.0411 41.8083 34.9848C41.7792 34.948 41.7627 34.9028 41.761 34.856C41.7619 34.7956 41.7737 34.736 41.7961 34.6799C41.8295 34.6019 41.8701 34.5271 41.9175 34.4567C41.9898 34.4275 42.0669 34.4117 42.1448 34.4101C42.2386 34.4047 42.306 34.402 42.3472 34.402C42.5666 34.402 42.7219 34.4634 42.8132 34.5862C42.9045 34.7089 42.9495 34.9083 42.9481 35.1844C42.75 35.2051 42.5503 35.2065 42.3519 35.1885Z" fill="#FFCC00"/>
<defs>
<linearGradient id="paint0_linear_2932_13575" x1="3.19922" y1="31.9992" x2="60.7992" y2="31.9992" gradientUnits="userSpaceOnUse">
<stop stop-color="#FFCC00"/>
<stop offset="1" stop-color="#FFCC00"/>
</linearGradient>
</defs>
</svg>
