<svg width="64" height="64" viewBox="0 0 64 64" fill="none" xmlns="http://www.w3.org/2000/svg">
<g clip-path="url(#clip0_2932_20750)">
<path d="M43.9825 8.0994L23.5716 1.65588C22.6852 1.37579 21.7453 1.30845 20.8281 1.45932C19.9109 1.61019 19.0421 1.97503 18.2921 2.52428C17.5422 3.07352 16.9322 3.79172 16.5116 4.62067C16.0909 5.44962 15.8715 6.366 15.8711 7.29556V47.0575L35.6164 53.2911C44.2282 56.0098 53.0001 49.5791 53.0001 40.55V20.404C53.0001 17.6609 52.1258 14.989 50.5043 12.7764C48.8828 10.5638 46.5983 8.92554 43.9825 8.0994Z" fill="url(#paint0_linear_2932_20750)"/>
<path d="M15.8711 47.0583L35.6164 53.2919C44.2282 56.0106 53.0001 49.5799 53.0001 40.5508L15.8711 47.0583Z" fill="#FFEC00"/>
<path d="M10.998 19.8401V25.1445L18.5603 23.8184L43.0416 19.5278V38.9685C43.0416 41.1207 42.2827 43.2041 40.8984 44.852C39.514 46.5 37.5929 47.607 35.4729 47.9784L18.5603 50.9441L10.998 52.269V62.6229L38.806 57.7358C42.7821 57.037 46.3847 54.9593 48.981 51.868C51.5773 48.7766 53.0012 44.8692 53.0025 40.8321V19.8632C53.0026 18.3367 52.6685 16.8286 52.0235 15.445C51.3786 14.0614 50.4385 12.8358 49.2694 11.8542C48.1003 10.8727 46.7304 10.1591 45.256 9.76347C43.7816 9.36787 42.2385 9.29989 40.735 9.56431L15.9734 13.9163C14.5799 14.161 13.3172 14.8891 12.4073 15.9725C11.4974 17.0559 10.9984 18.4253 10.998 19.8401Z" fill="url(#paint1_linear_2932_20750)"/>
</g>
<defs>
<linearGradient id="paint0_linear_2932_20750" x1="11.4474" y1="34.9" x2="53.5313" y2="19.5823" gradientUnits="userSpaceOnUse">
<stop offset="0.21" stop-color="#FFAB00"/>
<stop offset="0.58" stop-color="#FDD000"/>
<stop offset="0.81" stop-color="#FCE200"/>
</linearGradient>
<linearGradient id="paint1_linear_2932_20750" x1="12.3408" y1="15.9093" x2="45.3532" y2="55.2513" gradientUnits="userSpaceOnUse">
<stop offset="0.11" stop-color="#1B53B5"/>
<stop offset="0.38" stop-color="#184BA9"/>
<stop offset="0.87" stop-color="#103689"/>
<stop offset="1" stop-color="#0D2F7F"/>
</linearGradient>
<clipPath id="clip0_2932_20750">
<rect width="64" height="64" fill="white"/>
</clipPath>
</defs>
</svg>
