<svg width="61" height="60" viewBox="0 0 61 60" fill="none" xmlns="http://www.w3.org/2000/svg">
<rect x="0.5" width="60" height="60" rx="12" fill="white"/>
<path d="M25.7383 21.3798C25.7383 18.9683 27.6933 17.0117 30.1063 17.0117C32.5178 17.0117 34.4744 18.9667 34.4744 21.3798C34.4744 23.7913 32.5194 25.7478 30.1063 25.7478C27.6933 25.7447 25.7383 23.7897 25.7383 21.3798Z" stroke="#202020" stroke-width="2" stroke-linecap="round" stroke-linejoin="round"/>
<path d="M15.1523 38.8485C15.1523 36.437 17.1073 34.4805 19.5204 34.4805C21.9319 34.4805 23.8885 36.4355 23.8885 38.8485C23.8869 41.26 21.9335 43.2166 19.5204 43.2166C17.1073 43.2166 15.1523 41.2616 15.1523 38.8485V38.8485Z" stroke="#202020" stroke-width="2" stroke-linecap="round" stroke-linejoin="round"/>
<path d="M36.3242 38.8485C36.3242 36.437 38.2792 34.4805 40.6923 34.4805C43.1038 34.4805 45.0603 36.4355 45.0603 38.8485C45.0603 41.26 43.1053 43.2166 40.6923 43.2166C38.2776 43.2166 36.3242 41.2616 36.3242 38.8485V38.8485Z" stroke="#202020" stroke-width="2" stroke-linecap="round" stroke-linejoin="round"/>
<path d="M24.5819 29.9883L21.418 34.9309L24.5819 29.9883Z" fill="#FFFDEB"/>
<path d="M24.5819 29.9883L21.418 34.9309" stroke="#202020" stroke-width="2" stroke-linecap="round" stroke-linejoin="round"/>
<path d="M32.4688 25.0469L35.6326 29.9895L32.4688 25.0469Z" fill="#FFFDEB"/>
<path d="M32.4688 25.0469L35.6326 29.9895" stroke="#202020" stroke-width="2" stroke-linecap="round" stroke-linejoin="round"/>
<path d="M36.3231 38.8516H30.1055H36.3231Z" fill="#FFFDEB"/>
<path d="M36.3231 38.8516H30.1055" stroke="#202020" stroke-width="2" stroke-linecap="round" stroke-linejoin="round"/>
</svg>
