<svg width="61" height="60" viewBox="0 0 61 60" fill="none" xmlns="http://www.w3.org/2000/svg">
<rect x="0.5" width="60" height="60" rx="12" fill="white"/>
<path d="M16.5 22.875V44C16.5 46.21 18.1707 48 20.2333 48H40.7667C42.8293 48 44.5 46.21 44.5 44V23.94C44.5 22.902 44.1229 21.902 43.4472 21.156L36.2661 13.216C35.5643 12.438 34.5955 12 33.5856 12H30.5" stroke="#202020" stroke-width="2" stroke-linecap="round" stroke-linejoin="round"/>
<path d="M26.5006 30H34.5011C35.6051 30 36.5 31.0267 36.5 32.2917V38.7083C36.5 39.9733 35.6051 41 34.4994 41H26.4989C25.3949 41 24.5 39.9733 24.5 38.7083V32.2917C24.5 31.0267 25.3949 30 26.5006 30Z" stroke="#202020" stroke-width="2" stroke-linecap="round" stroke-linejoin="round"/>
<path d="M18.6875 16C18.6875 17.0353 20.5063 17.875 22.75 17.875C24.9937 17.875 26.8125 17.0353 26.8125 16" stroke="#202020" stroke-width="1.2" stroke-linecap="round" stroke-linejoin="round"/>
<path d="M18.6875 12.875C18.6875 13.9103 20.5066 14.75 22.7506 14.75C24.9946 14.75 26.8125 13.9103 26.8125 12.875" stroke="#202020" stroke-width="1.2" stroke-linecap="round" stroke-linejoin="round"/>
<path d="M26.8125 16V12.6667C26.8125 11.7452 24.9925 11 22.75 11C20.5075 11 18.6887 11.7464 18.6875 12.6667V19.3333C18.6887 20.2536 20.5063 21 22.75 21C24.9937 21 26.8113 20.2536 26.8125 19.3333V12.6667" stroke="#202020" stroke-width="1.2" stroke-linecap="round" stroke-linejoin="round"/>
</svg>
